<svg xmlns="http://www.w3.org/2000/svg" xmlns:xlink="http://www.w3.org/1999/xlink"><symbol id="svg-body" viewBox="0 0 512 512"><path d="m256.732 145.122c40.064 0 72.557-32.492 72.557-72.557 0-40.089-32.493-72.565-72.557-72.565-40.073 0-72.565 32.476-72.565 72.565 0 40.064 32.492 72.557 72.565 72.557z"/><path d="m345.668 453.857h-9.864c-10.091 0-18.282-8.182-18.282-18.282v-247.366c0-3.356-1.754-6.476-4.639-8.214-2.86-1.739-6.435-1.82-9.401-.26l-124.678 69.291c-36.279 18.135-18.875 39.796-5.363 39.252 13.504-.56 53.731-4.517 53.731-4.517v151.816c0 10.1-8.19 18.282-18.281 18.282h-19.362c-5.045 0-9.14 4.095-9.14 9.14v39.87c0 5.038 4.095 9.133 9.14 9.133h156.139c5.046 0 9.141-4.095 9.141-9.133v-39.87c.001-5.047-4.095-9.142-9.141-9.142z"/></symbol><use xlink:href="#svg-body"></use></svg>
