<svg xmlns="http://www.w3.org/2000/svg" xmlns:xlink="http://www.w3.org/1999/xlink"><symbol id="svg-body" viewBox="0 0 512 512"><path d="m497.569 215.169-55.341-13.064c-4.037-13.955-9.495-27.277-16.376-39.735l29.844-48.304c4.57-7.395 3.45-16.945-2.688-23.084l-31.992-31.991c-6.128-6.129-15.67-7.248-23.073-2.68l-48.286 29.854c-12.468-6.881-25.789-12.348-39.734-16.376l-13.064-55.368c-2-8.44-9.551-14.422-18.23-14.422h-45.24c-8.679 0-16.22 5.982-18.22 14.422l-13.064 55.369c-13.955 4.028-27.276 9.478-39.735 16.376l-48.304-29.871c-7.386-4.551-16.945-3.441-23.084 2.697l-31.99 31.982c-6.129 6.137-7.248 15.706-2.689 23.082l29.863 48.313c-6.881 12.458-12.349 25.78-16.367 39.716l-55.377 13.065c-8.44 2.019-14.422 9.551-14.422 18.239v45.231c0 8.679 5.982 16.239 14.422 18.229l55.378 13.065c4.028 13.945 9.486 27.257 16.367 39.707l-29.872 48.322c-4.551 7.394-3.441 16.954 2.697 23.101l31.982 31.973c6.138 6.147 15.706 7.256 23.082 2.688l48.322-29.872c12.469 6.89 25.79 12.349 39.726 16.367l13.064 55.368c2 8.468 9.541 14.431 18.22 14.431h45.24c8.679 0 16.23-5.964 18.23-14.431l13.064-55.368c13.936-4.018 27.258-9.477 39.708-16.367l48.313 29.863c7.403 4.57 16.945 3.45 23.092-2.688l31.982-31.992c6.128-6.128 7.248-15.688 2.678-23.083l-29.863-48.304c6.899-12.45 12.349-25.771 16.377-39.716l55.368-13.065c8.468-2 14.422-9.541 14.422-18.229v-45.239c.001-8.67-5.963-16.211-14.43-18.211zm-241.574 182.15c-78.001 0-141.296-63.295-141.296-141.324 0-78.038 63.296-141.324 141.296-141.324 78.03 0 141.324 63.286 141.324 141.324 0 78.029-63.294 141.324-141.324 141.324z"/><path d="m256.005 180.507c-41.671 0-75.469 33.809-75.469 75.488 0 41.68 33.798 75.488 75.469 75.488 41.68 0 75.487-33.808 75.487-75.488 0-41.679-33.808-75.488-75.487-75.488z"/></symbol><use xlink:href="#svg-body"></use></svg>
